<svg version="1.2" xmlns="http://www.w3.org/2000/svg" viewBox="0 0 700 416" width="64" height="38">
	<title>image_aroOgdaE_1689821836351_raw</title>
	<style>
		.s0 { fill: #032047 } 
		.s1 { fill: #007ac7 } 
		.s2 { fill: #f0f0f0 } 
		.s3 { fill: #033477 } 
		.s4 { fill: #021c40 } 
		.s5 { fill: #08244a } 
	</style>
	<path id="Forma 5" class="s0" d="m266.2 371l207.2-96.3 212.2 89.1-214.5-161.8-81.8 64.5"/>
	<path id="Forma 3" class="s1" d="m265.6 42.9l5.1 2.6 203.4 157.3-42 36.4-166.5 134.3 149.6-169.1"/>
	<path id="Forma 2" class="s2" d="m266.8 370.8c0 0 151.9-167 151.2-167.8-46.5-50.6-155-161.1-155-161.1l-252.1 0.2-3.6 328.6"/>
	<path id="Forma 4" class="s3" d="m264 42l208.9 161.8 83.6-56.5 128.5-93-213.1 103.2"/>
	<path id="Forma 6" class="s0" d="m692 99"/>
	<path id="Forma 7" class="s4" d="m687.2 51.5l-155.1 166.3 153.5 145.3-213.5-159.9"/>
	<path id="Forma 8" class="s4" d="m462 130"/>
	<path id="Forma 18" class="s5" d="m253.1 190.2l15.6 22.7-18.7 24.1h15l11-14 9 14h17l-16-25 15-22-14.1-0.1-8 12.9-7.9-13.3z"/>
	<path id="Forma 17" class="s5" d="m221 168v69.2l-16.2-0.2 1.1-68.8z"/>
	<path id="Forma 16" class="s5" d="m162.1 237l0.1-35.1-2.1 0.1v-11.9l3.8-0.1c0 0-0.3-7.1 4.1-15 5-8.9 35.8-6.6 35.8-6.6 0 0-2.7 5.6-4.6 7.2-2 1.7-2.9 4.7-2.9 4.7 0 0-11.3-0.4-15.1 1.9-2.2 1.3-0.2 6.8-0.2 6.8l15 1-0.1 12.7-16 0.3v33.8z"/>
	<path id="Forma 15" class="s5" d="m116.3 187.9l-15.3 0.1 0.2 49.9 18-0.3c0 0 0-24.5 0.2-29.4 0.2-4.9 13.7-6.1 14.3 0.4 0.6 7.9 1.1 28.9 1.1 28.9h17.7c0 0 3.4-34.3-4.8-44.2-4.4-5.3-17.5-5.6-20.7-5.7-6.9-0.2-10.6 8.5-10.6 8.5"/>
	<path id="Forma 14" class="s5" d="m76.4 174.8c1.1-9.3 7.8-9 7.8-9 0 0 8.3 0.8 8 9.2-0.2 6-7.6 7.9-7.6 7.9 0 0-9-1.4-8.2-8.1z"/>
	<path id="Forma 9" class="s5" d="m20.4 168.3l0.6 67.7h16l0.5-67.6"/>
	<path id="Forma 10" class="s5" d="m56.4 181.3"/>
	<path id="Forma 11" class="s5" d="m38 168"/>
	<path id="Forma 12" class="s5" d="m37 168c0 0 34.3-4.4 33 20-1.3 24.4-32.9 25.7-33.9 20.7-0.7-3.7-1.4-11.2 1.2-11.1 8.5 0.4 18.2-1.6 18.7-8.7 0.5-7.5-17.4-5-19.1-6.8-1.9-1.9 0.1-14.1 0.1-14.1z"/>
	<path id="Forma 13" class="s5" d="m77 236h14v-47h-15"/>
	<path id="Forma 14 copy" class="s5" d="m230.4 175.8c1.1-9.3 7.8-9 7.8-9 0 0 8.3 0.8 8 9.2-0.2 6-7.6 7.9-7.6 7.9 0 0-9-1.4-8.2-8.1z"/>
	<path id="Forma 13 copy" class="s5" d="m231 237h14v-47h-15"/>
	<path id="Forma 19" class="s5" d="m634 36"/>
</svg>